inDegrees=yes
name=ik_S51_A10_T01
DataType=double
version=3
OpenSimVersion=4.3-2021-08-27-4bc7ad9
endheader
time	pelvis_tilt	pelvis_list	pelvis_rotation	pelvis_tx	pelvis_ty	pelvis_tz	hip_flexion_r	hip_adduction_r	hip_rotation_r	knee_angle_r	knee_angle_r_beta	ankle_angle_r	subtalar_angle_r	mtp_angle_r	hip_flexion_l	hip_adduction_l	hip_rotation_l	knee_angle_l	knee_angle_l_beta	ankle_angle_l	subtalar_angle_l	mtp_angle_l	lumbar_extension	lumbar_bending	lumbar_rotation	arm_flex_r	arm_add_r	arm_rot_r	elbow_flex_r	pro_sup_r	wrist_flex_r	wrist_dev_r	arm_flex_l	arm_add_l	arm_rot_l	elbow_flex_l	pro_sup_l	wrist_flex_l	wrist_dev_l
14.07999999999979	2.256967082640252	2.470203064062364	47.02819885230966	0	0.9399999999999999	0	44.99049960337013	-9.999999987907453	-9.999998950858069	54.95573187555995	0.9591584640717198	0	0	0	44.99049960337013	-9.999999987907453	-9.999998950858069	54.95573187555995	0.9591584640717198	0	0	0	-0.2057122814038621	-0.1343999998332383	-2.915442133139223	62.27423685444701	-9.767038560555809	-11.4904573683222	91.45053261425785	-9.988440442877508	0	0	76.0305061712028	1.773018724925394	-17.98119074033135	61.87599736899723	60.40101423413362	0	0
14.09999999999979	2.219411899543093	2.4951563755407	47.01393742258913	0	0.9399999999999999	0	44.9905052988733	-9.999999987908843	-9.999998952266672	54.95574976008409	0.9591587762155511	0	0	0	44.9905052988733	-9.999999987908843	-9.999998952266672	54.95574976008409	0.9591587762155511	0	0	0	-0.2069221328206494	-0.09575384181704873	-3.113000658317214	62.30334375338568	-9.672173388541083	-11.30712954850918	91.44385454216629	-9.988363678606177	0	0	76.1120088387329	1.282628862084955	-18.19940181483442	60.84836020168369	60.77897491948023	0	0
14.11999999999979	2.211262411572688	2.51786151505558	46.79000753938431	0	0.9399999999999999	0	44.99051168112339	-9.9999999879104	-9.99999895384698	54.9557697483835	0.9591591250771877	0	0	0	44.99051168112339	-9.9999999879104	-9.99999895384698	54.9557697483835	0.9591591250771877	0	0	0	-0.1968676168795597	-0.07123195289238489	-3.022568964125003	62.55712379795079	-10.24596728605714	-11.6199130073427	90.66276337426179	-9.988320636153942	0	0	76.00045731636399	0.9073653011833588	-18.2549531293224	60.00902005776155	61.0054715575018	0	0
14.13999999999979	2.18044544118065	2.559570565823468	46.56872504040285	0	0.9399999999999999	0	44.99051514849329	-9.999999987911243	-9.999998954702365	54.95578065794409	0.9591593154849399	0	0	0	44.99051514849329	-9.999999987911243	-9.999998954702365	54.95578065794409	0.9591593154849399	0	0	0	-0.1851564137339954	-0.02181745318706785	-3.087088724169926	62.6971489453683	-10.21749261257197	-11.7045073508304	90.53749215086302	-9.988380401124244	0	0	75.78983185581646	0.4518612737035372	-18.30587644959738	59.38021101457115	60.94795784313752	0	0
14.15999999999979	2.107630083170251	2.606454853244422	46.28161457008316	0	0.9399999999999999	0	44.9905178610213	-9.999999987911902	-9.99999895537138	54.95578919103477	0.9591594644154677	0	0	0	44.9905178610213	-9.999999987911902	-9.99999895537138	54.95578919103477	0.9591594644154677	0	0	0	-0.1965746987620592	0.06076057053277967	-3.215066883083048	62.76821765292349	-10.05412420832328	-11.35922311012504	90.13481240017047	-9.988121552393276	0	0	75.44780661684347	-0.0238604655242572	-18.18244756930934	58.98649497750264	60.66788690304693	0	0
14.17999999999979	2.076048691687763	2.602392686493653	46.12886380965577	0	0.9399999999999999	0	44.99052285873464	-9.999999987913117	-9.999998956605712	54.9558048717102	0.959159738094883	0	0	0	44.99052285873464	-9.999999987913117	-9.999998956605712	54.9558048717102	0.959159738094883	0	0	0	-0.2206565775463055	0.08166754610151924	-3.188487929110932	62.95383760431367	-10.10331125905374	-11.45246258072064	89.751546663974	-9.988022132640165	0	0	75.51149342552404	-0.05329396215779037	-18.25299905602063	58.16078521403177	60.59628718112749	0	0
14.19999999999979	2.027934490644491	2.601007719657792	45.94890776781071	0	0.9399999999999999	0	44.99052832042553	-9.999999987914444	-9.999998957956077	54.95582196755931	0.9591600364737384	0	0	0	44.99052832042553	-9.999999987914444	-9.999998957956077	54.95582196755931	0.9591600364737384	0	0	0	-0.2511526730143768	0.1140475068093657	-3.248816721169512	63.07765784497698	-10.01581447072004	-11.3781884220331	89.55733567628467	-9.987940811998152	0	0	75.35049756661792	-0.3122977966650765	-18.15453394969125	58.46577551334845	60.42649567836967	0	0
14.21999999999979	1.983946020639864	2.594731427593061	45.77573788543889	0	0.9399999999999999	0	44.9905327656238	-9.999999987915517	-9.999998959051105	54.95583594588937	0.9591602804416218	0	0	0	44.9905327656238	-9.999999987915517	-9.999998959051105	54.95583594588937	0.9591602804416218	0	0	0	-0.2836323100906786	0.1402648571578979	-3.296255098336391	63.17472685454096	-9.844046003151478	-11.23473557671939	89.41065249954157	-9.987904645858061	0	0	75.33184372941643	-0.4355789700159086	-18.24250790861594	57.90670359914353	60.20351637986975	0	0
14.23999999999979	1.94292874032554	2.583399422203188	45.61254435891943	0	0.9399999999999999	0	44.99053598797751	-9.999999987916301	-9.999998959845783	54.95584605508381	0.9591604568803496	0	0	0	44.99053598797751	-9.999999987916301	-9.999998959845783	54.95584605508381	0.9591604568803496	0	0	0	-0.3180279179217096	0.160852745517766	-3.337054419424275	63.19332641708383	-9.861046806065479	-11.19518893064099	89.44838621764602	-9.987911239919258	0	0	75.33406801902034	-0.5452490980317914	-18.28921329168433	57.45836667078721	59.97035048084552	0	0
14.25999999999978	1.898008976380528	2.562306682147322	45.45933090683094	0	0.9399999999999999	0	44.99054073029248	-9.999999987917455	-9.999998961015981	54.95586091155913	0.9591607161747591	0	0	0	44.99054073029248	-9.999999987917455	-9.999998961015981	54.95586091155913	0.9591607161747591	0	0	0	-0.3618069812298693	0.1775366470285627	-3.373265732153137	63.22802862304477	-9.837111474668765	-11.13635156422909	89.62493289740334	-9.987840936911963	0	0	75.3581308543738	-0.5768685406775728	-18.2781680534822	56.79169463420008	60.20347373754685	0	0
14.27999999999978	1.858248335072449	2.539567501885316	45.31857939228404	0	0.9399999999999999	0	44.99054664991519	-9.999999987918889	-9.999998962474022	54.95587949145655	0.9591610404551437	0	0	0	44.99054664991519	-9.999999987918889	-9.999998962474022	54.95587949145655	0.9591610404551437	0	0	0	-0.4030490987526096	0.1897424238016468	-3.399484851428479	63.19988695290657	-9.842269179239809	-11.08006461233195	89.87187127769191	-9.987755498175183	0	0	75.44140552665324	-0.6825159882616897	-18.33093883000342	56.59076658122337	60.60577537047763	0	0
